<svg width="341" height="78" viewBox="0 0 341 78" fill="none" xmlns="http://www.w3.org/2000/svg">
<g clip-path="url(#clip0_44_3)">
<path d="M116.78 14.56V59.15C116.78 61.06 114.34 62.53 112.72 61.5L103.26 54.64C103.26 54.64 103.23 54.62 103.21 54.61C100.88 53.16 97.91 53.23 95.66 54.79L63.51 77.06C61.61 78.26 57.67 75.65 57.67 73.4V41.96C57.67 41.48 57.12 41.21 56.73 41.49C56.73 41.49 56.73 41.49 56.71 41.49L7.29 75.7C7.23 75.75 7.15 75.78 7.08 75.79C0.88 77.22 0 74.82 0 62.81V18.22C0 16.3 2.44 14.84 4.06 15.87L13.52 22.73C13.52 22.73 13.55 22.75 13.57 22.76C15.9 24.21 18.87 24.14 21.12 22.58L53.27 0.299994C55.17 -0.900006 59.11 1.70999 59.11 3.95999V35.39C59.11 35.87 59.66 36.14 60.06 35.86L109.49 1.67999C109.55 1.62999 109.63 1.59999 109.7 1.58999C115.9 0.159994 116.78 2.55999 116.78 14.57V14.56Z" fill="white"/>
<path d="M152.49 21.11V23.5H158.53V28.09H152.49V30.83H159.36V35.7H146.39V16.24H159.36V21.11H152.49Z" fill="white"/>
<path d="M167.76 15.37V35.71H161.66V15.37H167.76Z" fill="white"/>
<path d="M185.43 29.0299H175.62C175.71 30.3699 176.27 31.0399 177.3 31.0399C177.96 31.0399 178.44 30.7399 178.73 30.1299H185.19C184.97 31.2299 184.51 32.2099 183.81 33.0799C183.1 33.9499 182.22 34.6299 181.14 35.1399C180.07 35.6499 178.89 35.8899 177.61 35.8899C176.07 35.8899 174.7 35.5699 173.5 34.9299C172.3 34.2899 171.36 33.3699 170.69 32.1699C170.02 30.9699 169.69 29.5599 169.69 27.9499C169.69 26.3399 170.02 24.9399 170.69 23.7299C171.36 22.5299 172.3 21.6099 173.5 20.9699C174.7 20.3299 176.07 20.0099 177.61 20.0099C179.15 20.0099 180.52 20.3299 181.72 20.9599C182.92 21.5899 183.86 22.4999 184.53 23.6699C185.2 24.8499 185.53 26.2199 185.53 27.8199C185.53 28.2399 185.51 28.6399 185.45 29.0299H185.43ZM179.33 26.3699C179.33 25.8499 179.17 25.4699 178.84 25.1999C178.51 24.9299 178.09 24.7999 177.6 24.7999C176.52 24.7999 175.89 25.3199 175.7 26.3699H179.33Z" fill="white"/>
<path d="M187.61 23.7399C188.28 22.5399 189.22 21.6199 190.42 20.9799C191.62 20.3399 192.99 20.0199 194.53 20.0199C196.54 20.0199 198.24 20.5899 199.63 21.7299C201.02 22.8699 201.89 24.4399 202.25 26.4599H195.79C195.55 25.6499 195.08 25.2499 194.39 25.2499C193.9 25.2499 193.51 25.4799 193.22 25.9299C192.94 26.3899 192.8 27.0699 192.8 27.9699C192.8 28.8699 192.94 29.5499 193.22 30.0099C193.5 30.4699 193.9 30.6899 194.39 30.6899C195.09 30.6899 195.55 30.2899 195.79 29.4799H202.25C201.88 31.4899 201.01 33.0699 199.63 34.2099C198.25 35.3499 196.55 35.9199 194.53 35.9199C192.99 35.9199 191.62 35.5999 190.42 34.9599C189.22 34.3199 188.28 33.3999 187.61 32.1999C186.94 30.9999 186.61 29.5899 186.61 27.9799C186.61 26.3699 186.94 24.9699 187.61 23.7599V23.7399Z" fill="white"/>
<path d="M213.82 30.51V35.7H211.51C207.26 35.7 205.14 33.59 205.14 29.35V25.28H203.22V20.2H205.14V16.46H211.24V20.2H213.77V25.28H211.24V29.45C211.24 29.82 211.32 30.08 211.5 30.25C211.68 30.41 211.96 30.5 212.37 30.5H213.82V30.51Z" fill="white"/>
<path d="M224.53 20.91C225.43 20.37 226.36 20.1 227.34 20.1V26.61H225.61C224.46 26.61 223.61 26.81 223.07 27.22C222.53 27.62 222.26 28.33 222.26 29.37V35.72H216.16V20.22H222.26V23.08C222.88 22.18 223.64 21.47 224.54 20.92L224.53 20.91Z" fill="white"/>
<path d="M232.15 34.9399C230.9 34.2999 229.93 33.3799 229.22 32.1799C228.51 30.9799 228.16 29.5699 228.16 27.9599C228.16 26.3499 228.51 24.9499 229.22 23.7399C229.93 22.5399 230.9 21.6199 232.15 20.9799C233.4 20.3399 234.79 20.0199 236.36 20.0199C237.93 20.0199 239.32 20.3399 240.57 20.9799C241.82 21.6199 242.79 22.5399 243.5 23.7399C244.21 24.9399 244.56 26.3499 244.56 27.9599C244.56 29.5699 244.21 30.9799 243.5 32.1799C242.79 33.3799 241.82 34.2999 240.57 34.9399C239.32 35.5799 237.93 35.8999 236.36 35.8999C234.79 35.8999 233.4 35.5799 232.15 34.9399ZM237.78 29.9499C238.16 29.4999 238.36 28.8399 238.36 27.9599C238.36 27.0799 238.17 26.4099 237.78 25.9699C237.39 25.5299 236.92 25.2899 236.35 25.2899C235.78 25.2899 235.3 25.5099 234.92 25.9699C234.54 26.4299 234.34 27.0799 234.34 27.9599C234.34 28.8399 234.52 29.5099 234.9 29.9499C235.28 30.3999 235.75 30.6299 236.35 30.6299C236.95 30.6299 237.4 30.4099 237.78 29.9499Z" fill="white"/>
<path d="M271.76 21.88C272.85 23.07 273.4 24.69 273.4 26.72V35.71H267.33V27.49C267.33 26.83 267.13 26.31 266.74 25.94C266.35 25.56 265.82 25.38 265.16 25.38C264.5 25.38 263.95 25.57 263.57 25.94C263.19 26.32 262.99 26.83 262.99 27.49V35.71H256.92V27.49C256.92 26.83 256.72 26.31 256.33 25.94C255.94 25.56 255.41 25.38 254.75 25.38C254.09 25.38 253.54 25.57 253.16 25.94C252.78 26.32 252.58 26.83 252.58 27.49V35.71H246.48V20.21H252.58V22.3C253.02 21.64 253.62 21.11 254.38 20.71C255.14 20.31 256.03 20.1 257.06 20.1C258.17 20.1 259.17 20.35 260.03 20.83C260.89 21.31 261.58 22 262.09 22.88C262.66 22.07 263.38 21.41 264.26 20.89C265.14 20.37 266.11 20.11 267.17 20.11C269.15 20.11 270.68 20.7 271.78 21.89L271.76 21.88Z" fill="white"/>
<path d="M279.19 34.9399C277.94 34.2999 276.97 33.3799 276.26 32.1799C275.55 30.9799 275.2 29.5699 275.2 27.9599C275.2 26.3499 275.55 24.9499 276.26 23.7399C276.97 22.5399 277.94 21.6199 279.19 20.9799C280.44 20.3399 281.83 20.0199 283.4 20.0199C284.97 20.0199 286.36 20.3399 287.61 20.9799C288.86 21.6199 289.83 22.5399 290.54 23.7399C291.25 24.9399 291.6 26.3499 291.6 27.9599C291.6 29.5699 291.25 30.9799 290.54 32.1799C289.83 33.3799 288.86 34.2999 287.61 34.9399C286.36 35.5799 284.97 35.8999 283.4 35.8999C281.83 35.8999 280.44 35.5799 279.19 34.9399ZM284.83 29.9499C285.21 29.4999 285.41 28.8399 285.41 27.9599C285.41 27.0799 285.22 26.4099 284.83 25.9699C284.44 25.5299 283.97 25.2899 283.4 25.2899C282.83 25.2899 282.35 25.5099 281.97 25.9699C281.59 26.4299 281.39 27.0799 281.39 27.9599C281.39 28.8399 281.57 29.5099 281.95 29.9499C282.33 30.3999 282.8 30.6299 283.4 30.6299C284 30.6299 284.45 30.4099 284.83 29.9499Z" fill="white"/>
<path d="M301.9 20.91C302.8 20.37 303.73 20.1 304.71 20.1V26.61H302.98C301.83 26.61 300.98 26.81 300.44 27.22C299.9 27.62 299.63 28.33 299.63 29.37V35.72H293.53V20.22H299.63V23.08C300.25 22.18 301.01 21.47 301.91 20.92L301.9 20.91Z" fill="white"/>
<path d="M309.51 34.9399C308.26 34.2999 307.29 33.3799 306.58 32.1799C305.87 30.9799 305.52 29.5699 305.52 27.9599C305.52 26.3499 305.87 24.9499 306.58 23.7399C307.29 22.5399 308.26 21.6199 309.51 20.9799C310.76 20.3399 312.15 20.0199 313.72 20.0199C315.29 20.0199 316.68 20.3399 317.93 20.9799C319.18 21.6199 320.15 22.5399 320.86 23.7399C321.57 24.9399 321.92 26.3499 321.92 27.9599C321.92 29.5699 321.57 30.9799 320.86 32.1799C320.15 33.3799 319.18 34.2999 317.93 34.9399C316.68 35.5799 315.29 35.8999 313.72 35.8999C312.15 35.8999 310.76 35.5799 309.51 34.9399ZM317.91 16.5799L310.79 19.1599V15.0899L317.91 12.0699V16.5799ZM315.14 29.9499C315.52 29.4999 315.72 28.8399 315.72 27.9599C315.72 27.0799 315.53 26.4099 315.14 25.9699C314.75 25.5299 314.28 25.2899 313.71 25.2899C313.14 25.2899 312.66 25.5099 312.28 25.9699C311.9 26.4299 311.7 27.0799 311.7 27.9599C311.7 28.8399 311.88 29.5099 312.26 29.9499C312.64 30.3999 313.11 30.6299 313.71 30.6299C314.31 30.6299 314.76 30.4099 315.14 29.9499Z" fill="white"/>
<path d="M338.84 21.88C339.84 23.07 340.34 24.69 340.34 26.72V35.71H334.27V27.49C334.27 26.76 334.07 26.18 333.68 25.74C333.29 25.3 332.76 25.09 332.1 25.09C331.44 25.09 330.89 25.31 330.51 25.74C330.13 26.17 329.93 26.75 329.93 27.49V35.71H323.83V20.21H329.93V22.57C330.41 21.84 331.04 21.24 331.84 20.79C332.64 20.34 333.59 20.11 334.68 20.11C336.46 20.11 337.85 20.7 338.85 21.89L338.84 21.88Z" fill="white"/>
<path d="M158.08 46.0599V57.9199H156.88V48.4499L152.65 57.9199H151.77L147.54 48.4899V57.9199H146.34V46.0599H147.61L152.2 56.3399L156.79 46.0599H158.08Z" fill="white"/>
<path d="M167.78 55.0599H162.31L161.26 57.9099H159.99L164.37 46.0499H165.73L170.1 57.9099H168.83L167.78 55.0599ZM167.42 54.0599L165.05 47.5599L162.68 54.0599H167.42Z" fill="white"/>
<path d="M179.05 45.89V46.89H175.71V57.91H174.5V46.89H171.15V45.89H179.05Z" fill="white"/>
<path d="M182.16 46.88V51.36H186.72V52.36H182.16V56.91H187.23V57.91H180.96V45.88H187.23V46.88H182.16Z" fill="white"/>
<path d="M196 57.91L193.02 52.89H190.81V57.91H189.61V45.89H193.22C194.56 45.89 195.58 46.21 196.27 46.85C196.96 47.49 197.31 48.33 197.31 49.38C197.31 50.25 197.06 50.99 196.56 51.6C196.06 52.22 195.32 52.61 194.35 52.79L197.44 57.9H195.99L196 57.91ZM190.81 51.91H193.23C194.17 51.91 194.88 51.68 195.35 51.23C195.83 50.77 196.07 50.16 196.07 49.39C196.07 48.62 195.84 47.99 195.39 47.56C194.93 47.13 194.21 46.91 193.22 46.91H190.81V51.91Z" fill="white"/>
<path d="M200.89 45.89V57.91H199.69V45.89H200.89Z" fill="white"/>
<path d="M210.59 55.0599H205.12L204.07 57.9099H202.8L207.18 46.0499H208.54L212.91 57.9099H211.64L210.59 55.0599ZM210.23 54.0599L207.86 47.5599L205.49 54.0599H210.23Z" fill="white"/>
<path d="M216.04 56.9399H220.35V57.9199H214.83V45.8999H216.03V56.9299L216.04 56.9399Z" fill="white"/>
<path d="M223.27 46.88V51.36H227.83V52.36H223.27V56.91H228.34V57.91H222.07V45.88H228.34V46.88H223.27Z" fill="white"/>
<path d="M232.27 57.62C231.67 57.34 231.19 56.96 230.86 56.47C230.51 55.98 230.33 55.42 230.31 54.82H231.58C231.63 55.4 231.9 55.92 232.36 56.36C232.82 56.8 233.49 57.02 234.37 57.02C235.18 57.02 235.83 56.81 236.31 56.39C236.79 55.97 237.03 55.44 237.03 54.8C237.03 54.28 236.9 53.87 236.64 53.55C236.38 53.23 236.05 53 235.66 52.84C235.27 52.69 234.73 52.52 234.05 52.33C233.25 52.11 232.61 51.9 232.14 51.69C231.67 51.48 231.27 51.16 230.93 50.73C230.6 50.29 230.43 49.71 230.43 48.96C230.43 48.34 230.59 47.79 230.91 47.3C231.23 46.82 231.69 46.43 232.27 46.15C232.85 45.87 233.52 45.73 234.28 45.73C235.39 45.73 236.29 46 236.97 46.54C237.65 47.09 238.05 47.79 238.15 48.65H236.84C236.76 48.16 236.49 47.72 236.03 47.34C235.57 46.96 234.95 46.76 234.18 46.76C233.46 46.76 232.86 46.95 232.37 47.34C231.88 47.73 231.65 48.25 231.65 48.91C231.65 49.42 231.78 49.82 232.04 50.13C232.3 50.44 232.63 50.68 233.02 50.84C233.41 51 233.95 51.17 234.63 51.36C235.41 51.58 236.04 51.79 236.52 52.01C237 52.23 237.41 52.55 237.74 52.98C238.07 53.42 238.24 54 238.24 54.73C238.24 55.29 238.09 55.82 237.79 56.33C237.49 56.84 237.05 57.24 236.47 57.55C235.89 57.86 235.19 58.01 234.37 58.01C233.55 58.01 232.89 57.87 232.28 57.59V57.61L232.27 57.62Z" fill="white"/>
<path d="M246.45 46.88V51.36H251.01V52.36H246.45V56.91H251.52V57.91H245.25V45.88H251.52V46.88H246.45Z" fill="white"/>
<path d="M255.1 56.9399H259.41V57.9199H253.89V45.8999H255.09V56.9299L255.1 56.9399Z" fill="white"/>
<path d="M262.34 46.88V51.36H266.9V52.36H262.34V56.91H267.41V57.91H261.14V45.88H267.41V46.88H262.34ZM265.62 43.29L262.1 45.34V44.41L265.62 42.21V43.29Z" fill="white"/>
<path d="M270 48.72C270.52 47.79 271.22 47.06 272.11 46.54C273 46.02 274 45.76 275.1 45.76C276.44 45.76 277.59 46.08 278.54 46.71C279.49 47.35 280.19 48.24 280.63 49.4H279.22C278.87 48.59 278.35 47.95 277.65 47.49C276.94 47.03 276.1 46.81 275.1 46.81C274.22 46.81 273.42 47.02 272.72 47.43C272.02 47.84 271.46 48.44 271.06 49.21C270.66 49.99 270.46 50.88 270.46 51.9C270.46 52.92 270.66 53.81 271.06 54.58C271.46 55.35 272.01 55.94 272.72 56.35C273.43 56.77 274.22 56.97 275.1 56.97C276.1 56.97 276.95 56.75 277.65 56.29C278.35 55.83 278.88 55.21 279.22 54.41H280.63C280.19 55.56 279.49 56.44 278.53 57.07C277.57 57.7 276.42 58.02 275.09 58.02C273.99 58.02 272.99 57.76 272.1 57.24C271.21 56.72 270.5 55.99 269.99 55.06C269.48 54.13 269.21 53.08 269.21 51.9C269.21 50.72 269.47 49.66 269.99 48.73L270 48.72Z" fill="white"/>
<path d="M290.06 45.89V46.89H286.72V57.91H285.51V46.89H282.16V45.89H290.06Z" fill="white"/>
<path d="M298.37 57.91L295.39 52.89H293.18V57.91H291.98V45.89H295.59C296.93 45.89 297.95 46.21 298.64 46.85C299.33 47.49 299.68 48.33 299.68 49.38C299.68 50.25 299.43 50.99 298.93 51.6C298.43 52.22 297.69 52.61 296.72 52.79L299.81 57.9H298.36L298.37 57.91ZM293.17 51.91H295.59C296.53 51.91 297.24 51.68 297.71 51.23C298.19 50.77 298.43 50.16 298.43 49.39C298.43 48.62 298.2 47.99 297.75 47.56C297.29 47.13 296.57 46.91 295.58 46.91H293.17V51.91Z" fill="white"/>
<path d="M303.26 45.89V57.91H302.06V45.89H303.26Z" fill="white"/>
<path d="M306.22 48.72C306.74 47.79 307.44 47.06 308.33 46.54C309.22 46.02 310.22 45.76 311.32 45.76C312.66 45.76 313.81 46.08 314.76 46.71C315.71 47.35 316.41 48.24 316.85 49.4H315.44C315.09 48.59 314.57 47.95 313.87 47.49C313.16 47.03 312.32 46.81 311.32 46.81C310.44 46.81 309.64 47.02 308.94 47.43C308.24 47.84 307.68 48.44 307.28 49.21C306.88 49.99 306.68 50.88 306.68 51.9C306.68 52.92 306.88 53.81 307.28 54.58C307.68 55.35 308.23 55.94 308.94 56.35C309.65 56.77 310.44 56.97 311.32 56.97C312.32 56.97 313.17 56.75 313.87 56.29C314.57 55.83 315.1 55.21 315.44 54.41H316.85C316.41 55.56 315.71 56.44 314.75 57.07C313.79 57.7 312.64 58.02 311.31 58.02C310.21 58.02 309.21 57.76 308.32 57.24C307.43 56.72 306.72 55.99 306.21 55.06C305.7 54.13 305.43 53.08 305.43 51.9C305.43 50.72 305.69 49.66 306.21 48.73L306.22 48.72Z" fill="white"/>
<path d="M321.62 57.25C320.71 56.73 320 56 319.48 55.07C318.96 54.14 318.7 53.08 318.7 51.9C318.7 50.72 318.96 49.66 319.48 48.73C320 47.8 320.72 47.07 321.62 46.55C322.52 46.03 323.53 45.77 324.64 45.77C325.75 45.77 326.78 46.03 327.68 46.55C328.58 47.07 329.29 47.8 329.81 48.73C330.33 49.66 330.59 50.72 330.59 51.9C330.59 53.08 330.33 54.14 329.81 55.07C329.29 56.01 328.58 56.73 327.68 57.25C326.77 57.77 325.76 58.03 324.64 58.03C323.52 58.03 322.52 57.77 321.62 57.25ZM327.05 56.37C327.76 55.95 328.32 55.36 328.73 54.59C329.15 53.81 329.35 52.92 329.35 51.9C329.35 50.88 329.14 49.99 328.73 49.22C328.32 48.45 327.75 47.86 327.05 47.45C326.33 47.03 325.54 46.83 324.64 46.83C323.74 46.83 322.94 47.04 322.23 47.45C321.52 47.86 320.96 48.45 320.55 49.22C320.14 49.99 319.93 50.88 319.93 51.9C319.93 52.92 320.14 53.81 320.55 54.59C320.97 55.37 321.53 55.96 322.23 56.37C322.94 56.79 323.74 56.99 324.64 56.99C325.54 56.99 326.33 56.78 327.05 56.37Z" fill="white"/>
<path d="M334.35 57.62C333.75 57.34 333.27 56.96 332.94 56.47C332.59 55.98 332.41 55.42 332.39 54.82H333.66C333.71 55.4 333.98 55.92 334.44 56.36C334.9 56.8 335.57 57.02 336.45 57.02C337.26 57.02 337.91 56.81 338.39 56.39C338.87 55.97 339.11 55.44 339.11 54.8C339.11 54.28 338.98 53.87 338.72 53.55C338.46 53.23 338.13 53 337.74 52.84C337.35 52.69 336.81 52.52 336.13 52.33C335.33 52.11 334.69 51.9 334.22 51.69C333.75 51.48 333.35 51.16 333.01 50.73C332.68 50.29 332.51 49.71 332.51 48.96C332.51 48.34 332.67 47.79 332.99 47.3C333.31 46.82 333.77 46.43 334.35 46.15C334.93 45.87 335.6 45.73 336.36 45.73C337.47 45.73 338.37 46 339.05 46.54C339.73 47.09 340.13 47.79 340.23 48.65H338.92C338.84 48.16 338.57 47.72 338.11 47.34C337.65 46.96 337.03 46.76 336.26 46.76C335.54 46.76 334.94 46.95 334.45 47.34C333.96 47.73 333.73 48.25 333.73 48.91C333.73 49.42 333.86 49.82 334.12 50.13C334.38 50.44 334.71 50.68 335.1 50.84C335.49 51 336.03 51.17 336.71 51.36C337.49 51.58 338.12 51.79 338.6 52.01C339.08 52.23 339.49 52.55 339.82 52.98C340.15 53.42 340.32 54 340.32 54.73C340.32 55.29 340.17 55.82 339.87 56.33C339.57 56.84 339.13 57.24 338.55 57.55C337.97 57.86 337.27 58.01 336.45 58.01C335.63 58.01 334.97 57.87 334.36 57.59V57.61L334.35 57.62Z" fill="white"/>
</g>
<defs>
<clipPath id="clip0_44_3">
<rect width="340.34" height="77.37" fill="white"/>
</clipPath>
</defs>
</svg>
