<?xml version="1.0" encoding="UTF-8"?>
<svg id="Capa_2" data-name="Capa 2" xmlns="http://www.w3.org/2000/svg" viewBox="0 0 302.25 55.85">
  <defs>
    <style>
      .cls-1 {
        fill: #0c4dae;
      }

      .cls-2 {
        fill: #1d1e1c;
      }
    </style>
  </defs>
  <g id="Capa_1-2" data-name="Capa 1">
    <path class="cls-1" d="M84.29,10.51v32.18c0,1.38-1.76,2.44-2.93,1.7l-6.83-4.95s-.02-.02-.04-.02c-1.68-1.05-3.82-1-5.45.13l-23.21,16.08c-1.37.87-4.21-1.02-4.21-2.64v-22.69c0-.35-.39-.54-.68-.34,0,0,0,0-.01,0L5.26,54.64s-.1.06-.15.07c-4.47,1.03-5.11-.7-5.11-9.37V13.15c0-1.39,1.76-2.44,2.93-1.7l6.83,4.95s.02.02.04.02c1.68,1.05,3.82,1,5.45-.13L38.45.22c1.37-.87,4.22,1.02,4.22,2.64v22.69c0,.35.39.54.68.34h0L79.03,1.21s.1-.06.15-.07c4.47-1.03,5.11.7,5.11,9.37h0Z"/>
    <path class="cls-2" d="M114.39,13.12v2.39h6.04v4.59h-6.04v2.74h6.87v4.87h-12.97V8.26h12.97v4.87h-6.87Z"/>
    <path class="cls-2" d="M129.67,7.38v20.34h-6.1V7.38s6.1,0,6.1,0Z"/>
    <path class="cls-2" d="M147.34,21.04h-9.81c.09,1.34.65,2.01,1.68,2.01.66,0,1.14-.3,1.43-.91h6.46c-.22,1.1-.68,2.08-1.38,2.95-.71.87-1.59,1.55-2.67,2.06-1.07.51-2.25.75-3.53.75-1.54,0-2.91-.32-4.11-.96s-2.14-1.56-2.81-2.76-1-2.61-1-4.22.33-3.01,1-4.22c.67-1.2,1.61-2.12,2.81-2.76s2.57-.96,4.11-.96,2.91.32,4.11.95,2.14,1.54,2.81,2.71c.67,1.18,1,2.55,1,4.15,0,.42-.02.82-.08,1.21h0ZM141.24,18.38c0-.52-.16-.9-.49-1.17s-.75-.4-1.24-.4c-1.08,0-1.71.52-1.9,1.57h3.63Z"/>
    <path class="cls-2" d="M149.52,15.75c.67-1.2,1.61-2.12,2.81-2.76,1.2-.64,2.57-.96,4.11-.96,2.01,0,3.71.57,5.1,1.71,1.38,1.14,2.26,2.71,2.62,4.73h-6.46c-.24-.81-.71-1.21-1.4-1.21-.49,0-.88.23-1.17.68-.28.46-.42,1.14-.42,2.04s.14,1.58.42,2.04c.28.46.68.68,1.17.68.7,0,1.16-.4,1.4-1.21h6.46c-.37,2.01-1.24,3.59-2.62,4.73-1.38,1.14-3.08,1.71-5.1,1.71-1.54,0-2.91-.32-4.11-.96s-2.14-1.56-2.81-2.76-1-2.61-1-4.22.33-3.01,1-4.22v-.02Z"/>
    <path class="cls-2" d="M175.73,22.52v5.19h-2.31c-4.25,0-6.37-2.11-6.37-6.35v-4.07h-1.92v-5.08h1.92v-3.74h6.1v3.74h2.53v5.08h-2.53v4.17c0,.37.08.63.26.8.18.16.46.25.87.25h1.45,0Z"/>
    <path class="cls-2" d="M186.44,12.92c.9-.54,1.83-.81,2.81-.81v6.51h-1.73c-1.15,0-2,.2-2.54.61-.54.4-.81,1.11-.81,2.15v6.35h-6.1v-15.5h6.1v2.86c.62-.9,1.38-1.61,2.28-2.16h0Z"/>
    <path class="cls-2" d="M194.05,26.95c-1.25-.64-2.22-1.56-2.93-2.76-.71-1.2-1.06-2.61-1.06-4.22s.35-3.01,1.06-4.22c.71-1.2,1.68-2.12,2.93-2.76,1.25-.64,2.64-.96,4.21-.96s2.96.32,4.21.96,2.22,1.56,2.93,2.76c.71,1.2,1.06,2.61,1.06,4.22s-.35,3.02-1.06,4.22c-.71,1.2-1.68,2.12-2.93,2.76s-2.64.96-4.21.96-2.96-.32-4.21-.96ZM199.69,21.96c.38-.45.58-1.11.58-1.99s-.19-1.55-.58-1.99-.86-.68-1.43-.68-1.05.22-1.43.68-.58,1.11-.58,1.99.18,1.55.56,1.99c.38.45.85.68,1.45.68s1.05-.22,1.43-.68h0Z"/>
    <path class="cls-2" d="M233.67,13.89c1.09,1.19,1.64,2.81,1.64,4.84v8.99h-6.07v-8.22c0-.66-.2-1.18-.59-1.55-.39-.38-.92-.56-1.58-.56s-1.21.19-1.59.56c-.38.38-.58.89-.58,1.55v8.22h-6.07v-8.22c0-.66-.2-1.18-.59-1.55-.39-.38-.92-.56-1.58-.56s-1.21.19-1.59.56c-.38.38-.58.89-.58,1.55v8.22h-6.1v-15.5h6.1v2.09c.44-.66,1.04-1.19,1.8-1.59.76-.4,1.65-.61,2.68-.61,1.11,0,2.11.25,2.97.73.86.48,1.55,1.17,2.06,2.05.57-.81,1.29-1.47,2.17-1.99s1.85-.78,2.91-.78c1.98,0,3.51.59,4.61,1.78Z"/>
    <path class="cls-2" d="M241.1,26.95c-1.25-.64-2.22-1.56-2.93-2.76-.71-1.2-1.06-2.61-1.06-4.22s.35-3.01,1.06-4.22c.71-1.2,1.68-2.12,2.93-2.76s2.64-.96,4.21-.96,2.96.32,4.21.96,2.22,1.56,2.93,2.76c.71,1.2,1.06,2.61,1.06,4.22s-.35,3.02-1.06,4.22c-.71,1.2-1.68,2.12-2.93,2.76-1.25.64-2.64.96-4.21.96s-2.96-.32-4.21-.96ZM246.74,21.96c.38-.45.58-1.11.58-1.99s-.19-1.55-.58-1.99-.86-.68-1.43-.68-1.05.22-1.43.68-.58,1.11-.58,1.99.18,1.55.56,1.99c.38.45.85.68,1.45.68s1.05-.22,1.43-.68h0Z"/>
    <path class="cls-2" d="M263.8,12.92c.9-.54,1.83-.81,2.81-.81v6.51h-1.73c-1.15,0-2,.2-2.54.61-.54.4-.81,1.11-.81,2.15v6.35h-6.1v-15.5h6.1v2.86c.62-.9,1.38-1.61,2.28-2.16h0Z"/>
    <path class="cls-2" d="M271.42,26.95c-1.25-.64-2.22-1.56-2.93-2.76-.71-1.2-1.06-2.61-1.06-4.22s.35-3.01,1.06-4.22c.71-1.2,1.68-2.12,2.93-2.76,1.25-.64,2.64-.96,4.21-.96s2.96.32,4.21.96,2.22,1.56,2.93,2.76c.71,1.2,1.06,2.61,1.06,4.22s-.35,3.02-1.06,4.22c-.71,1.2-1.68,2.12-2.93,2.76s-2.64.96-4.21.96-2.96-.32-4.21-.96ZM279.82,8.59l-7.12,2.58v-4.07l7.12-3.02v4.51ZM277.04,21.96c.38-.45.58-1.11.58-1.99s-.19-1.55-.58-1.99-.86-.68-1.43-.68-1.05.22-1.43.68-.58,1.11-.58,1.99.18,1.55.56,1.99c.38.45.85.68,1.45.68s1.05-.22,1.43-.68h0Z"/>
    <path class="cls-2" d="M300.75,13.89c1,1.19,1.5,2.81,1.5,4.84v8.99h-6.07v-8.22c0-.73-.2-1.31-.59-1.75s-.92-.65-1.58-.65-1.21.22-1.59.65-.58,1.01-.58,1.75v8.22h-6.1v-15.5h6.1v2.36c.48-.73,1.11-1.33,1.91-1.78.8-.45,1.75-.68,2.84-.68,1.78,0,3.17.59,4.17,1.78h0Z"/>
    <g>
      <path class="cls-2" d="M120.28,37.52v11.38h-1.87v-7.8l-3.47,7.8h-1.29l-3.49-7.8v7.8h-1.87v-11.38h2.01l4,8.93,3.98-8.93h2Z"/>
      <path class="cls-2" d="M129.6,46.58h-4.77l-.82,2.33h-1.95l4.08-11.4h2.16l4.08,11.4h-1.97l-.82-2.33ZM129.08,45.05l-1.85-5.29-1.87,5.29h3.72Z"/>
      <path class="cls-2" d="M141.51,37.52v1.52h-3.03v9.86h-1.87v-9.86h-3.05v-1.52h7.94Z"/>
      <path class="cls-2" d="M145.26,39.03v3.34h3.93v1.52h-3.93v3.49h4.42v1.52h-6.29v-11.4h6.29v1.52h-4.42Z"/>
      <path class="cls-2" d="M157.89,48.9l-2.62-4.55h-1.42v4.55h-1.87v-11.38h3.93c.87,0,1.61.15,2.22.46s1.06.72,1.36,1.23c.3.51.45,1.09.45,1.72,0,.74-.22,1.42-.65,2.02s-1.09,1.02-1.99,1.24l2.82,4.72h-2.23ZM153.84,42.86h2.06c.7,0,1.23-.17,1.58-.52.36-.35.53-.82.53-1.41s-.17-1.05-.52-1.38c-.35-.33-.88-.5-1.59-.5h-2.06v3.82Z"/>
      <path class="cls-2" d="M164.19,37.52v11.38h-1.87v-11.38h1.87Z"/>
      <path class="cls-2" d="M173.51,46.58h-4.77l-.82,2.33h-1.95l4.08-11.4h2.16l4.08,11.4h-1.97l-.82-2.33ZM172.99,45.05l-1.85-5.29-1.87,5.29h3.72Z"/>
      <path class="cls-2" d="M179.93,47.39h3.85v1.51h-5.72v-11.38h1.87v9.88Z"/>
      <path class="cls-2" d="M187.2,39.03v3.34h3.93v1.52h-3.93v3.49h4.42v1.52h-6.29v-11.4h6.29v1.52h-4.42Z"/>
      <path class="cls-2" d="M195.6,48.61c-.61-.27-1.09-.65-1.44-1.14-.35-.49-.52-1.06-.52-1.72h2c.04.49.24.9.58,1.21.34.32.83.47,1.45.47s1.15-.16,1.51-.47c.36-.31.54-.71.54-1.2,0-.38-.11-.69-.34-.93-.22-.24-.5-.43-.83-.56s-.79-.27-1.38-.43c-.74-.2-1.35-.4-1.81-.6-.46-.2-.86-.52-1.19-.94s-.49-.99-.49-1.7c0-.66.16-1.23.49-1.72s.79-.87,1.38-1.13c.59-.26,1.27-.39,2.05-.39,1.1,0,2.01.28,2.71.83.7.55,1.09,1.31,1.17,2.27h-2.06c-.03-.42-.23-.77-.59-1.06-.36-.29-.84-.44-1.42-.44-.54,0-.97.14-1.31.41s-.51.67-.51,1.18c0,.35.11.64.32.86.21.22.48.4.81.53s.77.27,1.34.43c.75.21,1.37.42,1.84.62s.88.53,1.21.96.5,1.01.5,1.73c0,.58-.16,1.12-.47,1.64-.31.51-.76.92-1.36,1.24-.6.31-1.3.47-2.11.47-.76,0-1.45-.13-2.06-.4Z"/>
      <path class="cls-2" d="M209.93,39.03v3.34h3.93v1.52h-3.93v3.49h4.42v1.52h-6.29v-11.4h6.29v1.52h-4.42Z"/>
      <path class="cls-2" d="M218.51,47.39h3.85v1.51h-5.72v-11.38h1.87v9.88Z"/>
      <path class="cls-2" d="M225.78,39.03v3.34h3.93v1.52h-3.93v3.49h4.42v1.52h-6.29v-11.4h6.29v1.52h-4.42ZM228.67,35.08l-3.62,1.78v-1.37l3.62-2v1.59Z"/>
      <path class="cls-2" d="M232.65,40.19c.52-.88,1.22-1.57,2.11-2.07.89-.5,1.86-.75,2.92-.75,1.21,0,2.29.3,3.23.89.94.59,1.63,1.44,2.06,2.53h-2.24c-.3-.6-.7-1.05-1.23-1.34s-1.13-.44-1.82-.44c-.75,0-1.42.17-2.02.51-.59.34-1.05.82-1.38,1.46s-.5,1.37-.5,2.21.17,1.58.5,2.21c.33.63.79,1.12,1.38,1.47.59.34,1.26.52,2.02.52.69,0,1.29-.15,1.82-.44s.93-.74,1.23-1.34h2.24c-.43,1.09-1.11,1.93-2.06,2.52-.94.59-2.02.88-3.23.88-1.07,0-2.05-.25-2.93-.75-.88-.5-1.59-1.19-2.1-2.07s-.78-1.88-.78-3,.26-2.11.78-3Z"/>
      <path class="cls-2" d="M252.51,37.52v1.52h-3.03v9.86h-1.87v-9.86h-3.05v-1.52h7.94Z"/>
      <path class="cls-2" d="M260.31,48.9l-2.62-4.55h-1.42v4.55h-1.87v-11.38h3.93c.87,0,1.61.15,2.22.46s1.06.72,1.36,1.23c.3.51.45,1.09.45,1.72,0,.74-.22,1.42-.65,2.02s-1.09,1.02-1.99,1.24l2.82,4.72h-2.23ZM256.26,42.86h2.06c.7,0,1.23-.17,1.58-.52.36-.35.53-.82.53-1.41s-.17-1.05-.52-1.38c-.35-.33-.88-.5-1.59-.5h-2.06v3.82Z"/>
      <path class="cls-2" d="M266.61,37.52v11.38h-1.87v-11.38h1.87Z"/>
      <path class="cls-2" d="M269.22,40.19c.52-.88,1.22-1.57,2.11-2.07.89-.5,1.86-.75,2.92-.75,1.21,0,2.29.3,3.23.89.94.59,1.63,1.44,2.06,2.53h-2.24c-.3-.6-.7-1.05-1.23-1.34s-1.13-.44-1.82-.44c-.75,0-1.42.17-2.02.51-.59.34-1.05.82-1.38,1.46s-.5,1.37-.5,2.21.17,1.58.5,2.21c.33.63.79,1.12,1.38,1.47.59.34,1.26.52,2.02.52.69,0,1.29-.15,1.82-.44s.93-.74,1.23-1.34h2.24c-.43,1.09-1.11,1.93-2.06,2.52-.94.59-2.02.88-3.23.88-1.07,0-2.05-.25-2.93-.75-.88-.5-1.59-1.19-2.1-2.07s-.78-1.88-.78-3,.26-2.11.78-3Z"/>
      <path class="cls-2" d="M283.99,48.27c-.89-.5-1.59-1.19-2.11-2.08-.52-.89-.78-1.89-.78-3.01s.26-2.11.78-3c.52-.88,1.22-1.57,2.11-2.07.89-.5,1.86-.75,2.92-.75s2.05.25,2.94.75c.89.5,1.59,1.19,2.11,2.07.51.88.77,1.88.77,3s-.26,2.12-.77,3.01c-.51.89-1.22,1.58-2.11,2.08-.89.5-1.87.74-2.94.74s-2.03-.25-2.92-.74ZM288.93,46.88c.59-.34,1.05-.84,1.38-1.47.33-.64.5-1.38.5-2.22s-.17-1.58-.5-2.21-.79-1.12-1.38-1.46-1.26-.51-2.01-.51-1.42.17-2.02.51c-.59.34-1.05.82-1.38,1.46s-.5,1.37-.5,2.21.17,1.58.5,2.22c.33.64.79,1.13,1.38,1.47.59.34,1.26.52,2.02.52s1.42-.17,2.01-.52Z"/>
      <path class="cls-2" d="M296.25,48.61c-.61-.27-1.09-.65-1.44-1.14-.35-.49-.52-1.06-.52-1.72h2c.04.49.24.9.58,1.21.34.32.83.47,1.45.47s1.15-.16,1.51-.47c.36-.31.54-.71.54-1.2,0-.38-.11-.69-.34-.93-.22-.24-.5-.43-.83-.56s-.79-.27-1.38-.43c-.74-.2-1.35-.4-1.81-.6-.46-.2-.86-.52-1.19-.94s-.49-.99-.49-1.7c0-.66.16-1.23.49-1.72s.79-.87,1.38-1.13c.59-.26,1.27-.39,2.05-.39,1.1,0,2.01.28,2.71.83.7.55,1.09,1.31,1.17,2.27h-2.06c-.03-.42-.23-.77-.59-1.06-.36-.29-.84-.44-1.42-.44-.54,0-.97.14-1.31.41s-.51.67-.51,1.18c0,.35.11.64.32.86.21.22.48.4.81.53s.77.27,1.34.43c.75.21,1.37.42,1.84.62s.88.53,1.21.96.5,1.01.5,1.73c0,.58-.16,1.12-.47,1.64-.31.51-.76.92-1.36,1.24-.6.31-1.3.47-2.11.47-.76,0-1.45-.13-2.06-.4Z"/>
    </g>
  </g>
</svg>