<?xml version="1.0" encoding="UTF-8"?>
<svg id="Capa_2" data-name="Capa 2" xmlns="http://www.w3.org/2000/svg" viewBox="0 0 223.59 143.13">
  <defs>
    <style>
      .cls-1 {
        fill: #fff;
      }
    </style>
  </defs>
  <g id="Capa_1-2" data-name="Capa 1">
    <path class="cls-1" d="M173.96,15.5v47.47c0,2.04-2.59,3.6-4.32,2.5l-10.07-7.3s-.03-.02-.06-.03c-2.48-1.55-5.64-1.47-8.04.2l-34.05,23.46c-4.3,1.67-6.39-1.26-6.39-3.65v-33.47c0-.52-.58-.79-1-.5,0,0,0,0-.02,0l-52.62,36.39c-.07.05-.15.08-.22.1-6.6,1.52-7.54-1.03-7.54-13.82V19.4c0-2.05,2.6-3.6,4.32-2.5l10.07,7.3s.03.02.06.03c2.48,1.55,5.64,1.47,8.04-.2L106.34.32c2.02-1.28,6.22,1.51,6.22,3.9v33.46c0,.52.58.79,1.01.5h0L166.2,1.79c.07-.05.15-.08.22-.1,6.6-1.52,7.54,1.03,7.54,13.82h0Z"/>
    <g>
      <path class="cls-1" d="M7.02,105.91v2.75h6.95v5.28h-6.95v3.16h7.91v5.6H0v-22.39h14.93v5.6h-7.91Z"/>
      <path class="cls-1" d="M24.6,99.3v23.4h-7.03v-23.4s7.03,0,7.03,0Z"/>
      <path class="cls-1" d="M44.93,115.02h-11.29c.11,1.54.75,2.31,1.93,2.31.76,0,1.31-.35,1.65-1.04h7.43c-.26,1.27-.79,2.4-1.59,3.4-.81,1-1.83,1.79-3.07,2.37-1.23.58-2.58.87-4.06.87-1.77,0-3.34-.37-4.72-1.11s-2.46-1.8-3.23-3.18-1.15-3-1.15-4.86.38-3.47,1.15-4.86c.77-1.38,1.85-2.44,3.23-3.18s2.96-1.11,4.72-1.11,3.34.36,4.72,1.09,2.46,1.77,3.23,3.11c.77,1.35,1.15,2.94,1.15,4.78,0,.49-.03.95-.1,1.39h0ZM37.91,111.95c0-.59-.19-1.04-.57-1.34s-.86-.46-1.42-.46c-1.25,0-1.97.6-2.19,1.8h4.18Z"/>
      <path class="cls-1" d="M47.44,108.93c.77-1.38,1.85-2.44,3.23-3.18,1.38-.73,2.96-1.11,4.72-1.11,2.32,0,4.27.65,5.87,1.96,1.59,1.31,2.6,3.12,3.02,5.44h-7.43c-.27-.93-.81-1.39-1.61-1.39-.57,0-1.02.27-1.34.79-.33.53-.49,1.31-.49,2.34s.16,1.81.49,2.34c.33.53.78.79,1.34.79.81,0,1.34-.46,1.61-1.39h7.43c-.42,2.32-1.42,4.13-3.02,5.44-1.59,1.31-3.55,1.96-5.87,1.96-1.77,0-3.34-.37-4.72-1.11s-2.46-1.8-3.23-3.18-1.15-3-1.15-4.86.38-3.47,1.15-4.86v-.02Z"/>
      <path class="cls-1" d="M77.6,116.72v5.97h-2.65c-4.89,0-7.33-2.43-7.33-7.31v-4.68h-2.21v-5.85h2.21v-4.3h7.03v4.3h2.91v5.85h-2.91v4.8c0,.42.1.73.3.92.2.19.53.28,1,.28h1.67,0Z"/>
      <path class="cls-1" d="M89.93,105.67c1.04-.62,2.11-.93,3.23-.93v7.49h-1.99c-1.33,0-2.3.23-2.93.7-.62.46-.93,1.28-.93,2.47v7.31h-7.03v-17.84h7.03v3.29c.72-1.04,1.59-1.86,2.63-2.49h0Z"/>
      <path class="cls-1" d="M98.69,121.82c-1.43-.73-2.56-1.8-3.37-3.18-.81-1.38-1.22-3-1.22-4.86s.41-3.47,1.22-4.86c.81-1.38,1.94-2.44,3.37-3.18s3.04-1.11,4.84-1.11,3.41.37,4.84,1.11,2.56,1.8,3.37,3.18c.81,1.38,1.22,3,1.22,4.86s-.41,3.48-1.22,4.86c-.81,1.38-1.94,2.44-3.37,3.18-1.43.73-3.04,1.11-4.84,1.11s-3.41-.37-4.84-1.11ZM105.17,116.08c.44-.51.66-1.28.66-2.29s-.22-1.78-.66-2.29c-.44-.51-.99-.78-1.65-.78s-1.2.26-1.65.78-.66,1.28-.66,2.29.21,1.78.65,2.29c.43.51.98.78,1.66.78s1.2-.26,1.65-.78h0Z"/>
      <path class="cls-1" d="M144.27,106.8c1.26,1.37,1.88,3.23,1.88,5.57v10.34h-6.99v-9.46c0-.76-.23-1.35-.68-1.79-.45-.43-1.06-.65-1.82-.65s-1.39.22-1.83.65c-.44.43-.66,1.03-.66,1.79v9.46h-6.99v-9.46c0-.76-.23-1.35-.68-1.79-.45-.43-1.06-.65-1.82-.65s-1.39.22-1.83.65c-.44.43-.66,1.03-.66,1.79v9.46h-7.03v-17.84h7.03v2.41c.5-.76,1.19-1.37,2.07-1.83s1.9-.7,3.09-.7c1.28,0,2.42.28,3.42.84.99.56,1.78,1.34,2.37,2.35.65-.93,1.49-1.69,2.5-2.29s2.13-.9,3.35-.9c2.27,0,4.04.68,5.3,2.05Z"/>
      <path class="cls-1" d="M152.83,121.82c-1.43-.73-2.56-1.8-3.37-3.18-.81-1.38-1.22-3-1.22-4.86s.41-3.47,1.22-4.86c.81-1.38,1.94-2.44,3.37-3.18s3.04-1.11,4.84-1.11,3.41.37,4.84,1.11,2.56,1.8,3.37,3.18c.81,1.38,1.22,3,1.22,4.86s-.41,3.48-1.22,4.86c-.81,1.38-1.94,2.44-3.37,3.18-1.43.73-3.04,1.11-4.84,1.11s-3.41-.37-4.84-1.11ZM159.31,116.08c.44-.51.66-1.28.66-2.29s-.22-1.78-.66-2.29-.99-.78-1.65-.78-1.2.26-1.65.78-.66,1.28-.66,2.29.21,1.78.65,2.29c.43.51.98.78,1.66.78s1.2-.26,1.65-.78h0Z"/>
      <path class="cls-1" d="M178.96,105.67c1.04-.62,2.11-.93,3.23-.93v7.49h-1.99c-1.33,0-2.3.23-2.93.7-.62.46-.93,1.28-.93,2.47v7.31h-7.03v-17.84h7.03v3.29c.72-1.04,1.59-1.86,2.63-2.49h0Z"/>
      <path class="cls-1" d="M187.72,121.82c-1.43-.73-2.56-1.8-3.37-3.18-.81-1.38-1.22-3-1.22-4.86s.41-3.47,1.22-4.86c.81-1.38,1.94-2.44,3.37-3.18s3.04-1.11,4.84-1.11,3.41.37,4.84,1.11c1.43.73,2.56,1.8,3.37,3.18.81,1.38,1.22,3,1.22,4.86s-.41,3.48-1.22,4.86c-.81,1.38-1.94,2.44-3.37,3.18s-3.04,1.11-4.84,1.11-3.41-.37-4.84-1.11ZM197.39,100.69l-8.19,2.97v-4.68l8.19-3.48v5.18ZM194.19,116.08c.44-.51.66-1.28.66-2.29s-.22-1.78-.66-2.29-.99-.78-1.65-.78-1.2.26-1.65.78-.66,1.28-.66,2.29.21,1.78.65,2.29c.43.51.98.78,1.66.78s1.2-.26,1.65-.78h0Z"/>
      <path class="cls-1" d="M221.47,106.8c1.15,1.37,1.73,3.23,1.73,5.57v10.34h-6.99v-9.46c0-.84-.23-1.51-.68-2.01s-1.06-.74-1.82-.74-1.39.25-1.83.74-.66,1.17-.66,2.01v9.46h-7.03v-17.84h7.03v2.72c.55-.84,1.28-1.53,2.19-2.05.92-.52,2.01-.79,3.27-.79,2.04,0,3.65.68,4.8,2.05h0Z"/>
    </g>
    <g>
      <path class="cls-1" d="M13.82,129.88v13.12h-2.15v-8.99l-4,8.99h-1.49l-4.02-8.99v8.99H0v-13.12h2.32l4.61,10.29,4.59-10.29h2.3Z"/>
      <path class="cls-1" d="M24.56,140.32h-5.49l-.94,2.68h-2.25l4.7-13.14h2.49l4.7,13.14h-2.27l-.94-2.68ZM23.96,138.57l-2.13-6.1-2.15,6.1h4.29Z"/>
      <path class="cls-1" d="M38.29,129.88v1.76h-3.49v11.37h-2.15v-11.37h-3.51v-1.76h9.16Z"/>
      <path class="cls-1" d="M42.61,131.62v3.85h4.53v1.76h-4.53v4.02h5.1v1.76h-7.25v-13.14h7.25v1.76h-5.1Z"/>
      <path class="cls-1" d="M57.17,143l-3.02-5.25h-1.64v5.25h-2.15v-13.12h4.53c1.01,0,1.86.18,2.56.53s1.22.82,1.57,1.42c.35.59.52,1.25.52,1.98,0,.86-.25,1.63-.75,2.33s-1.26,1.17-2.29,1.43l3.25,5.44h-2.57ZM52.5,136.04h2.38c.81,0,1.41-.2,1.82-.6.41-.4.61-.94.61-1.62s-.2-1.21-.6-1.6c-.4-.38-1.01-.58-1.83-.58h-2.38v4.4Z"/>
      <path class="cls-1" d="M64.44,129.88v13.12h-2.15v-13.12h2.15Z"/>
      <path class="cls-1" d="M75.18,140.32h-5.49l-.94,2.68h-2.25l4.7-13.14h2.49l4.7,13.14h-2.27l-.94-2.68ZM74.57,138.57l-2.13-6.1-2.15,6.1h4.29Z"/>
      <path class="cls-1" d="M82.58,141.26h4.44v1.74h-6.59v-13.12h2.15v11.38Z"/>
      <path class="cls-1" d="M90.96,131.62v3.85h4.53v1.76h-4.53v4.02h5.1v1.76h-7.25v-13.14h7.25v1.76h-5.1Z"/>
      <path class="cls-1" d="M100.65,142.67c-.71-.31-1.26-.75-1.66-1.31-.4-.57-.6-1.23-.6-1.98h2.3c.05.57.27,1.03.67,1.4.4.37.95.55,1.67.55s1.32-.18,1.74-.54c.42-.36.62-.82.62-1.39,0-.44-.13-.8-.39-1.08-.26-.28-.58-.49-.96-.64s-.92-.31-1.6-.49c-.86-.23-1.55-.46-2.09-.69-.54-.23-.99-.59-1.37-1.09s-.57-1.15-.57-1.96c0-.76.19-1.42.57-1.98s.91-1,1.59-1.3c.68-.3,1.47-.45,2.36-.45,1.27,0,2.31.32,3.12.95.81.64,1.26,1.51,1.35,2.62h-2.38c-.04-.48-.26-.89-.68-1.23-.42-.34-.96-.51-1.64-.51-.62,0-1.12.16-1.51.47s-.59.77-.59,1.36c0,.4.12.73.37.99.25.26.56.46.93.61s.89.31,1.55.49c.87.24,1.58.48,2.12.72s1.01.61,1.4,1.1.58,1.16.58,1.99c0,.67-.18,1.3-.54,1.89-.36.59-.88,1.07-1.57,1.43-.69.36-1.5.54-2.43.54-.88,0-1.67-.15-2.38-.46Z"/>
      <path class="cls-1" d="M117.17,131.62v3.85h4.53v1.76h-4.53v4.02h5.1v1.76h-7.25v-13.14h7.25v1.76h-5.1Z"/>
      <path class="cls-1" d="M127.06,141.26h4.44v1.74h-6.59v-13.12h2.15v11.38Z"/>
      <path class="cls-1" d="M135.44,131.62v3.85h4.53v1.76h-4.53v4.02h5.1v1.76h-7.25v-13.14h7.25v1.76h-5.1ZM138.76,127.07l-4.17,2.06v-1.59l4.17-2.3v1.83Z"/>
      <path class="cls-1" d="M143.36,132.96c.6-1.02,1.41-1.82,2.44-2.39,1.03-.57,2.15-.86,3.37-.86,1.4,0,2.64.34,3.73,1.03,1.09.69,1.88,1.66,2.37,2.92h-2.59c-.34-.69-.81-1.21-1.42-1.55s-1.3-.51-2.1-.51c-.87,0-1.64.2-2.32.59-.68.39-1.21.95-1.6,1.68s-.58,1.58-.58,2.55.19,1.82.58,2.55c.38.73.92,1.29,1.6,1.69.68.4,1.45.59,2.32.59.79,0,1.49-.17,2.1-.51s1.08-.86,1.42-1.55h2.59c-.49,1.26-1.28,2.23-2.37,2.91-1.09.68-2.33,1.02-3.73,1.02-1.23,0-2.36-.29-3.38-.86-1.02-.57-1.83-1.37-2.43-2.39s-.9-2.17-.9-3.46.3-2.44.9-3.46Z"/>
      <path class="cls-1" d="M166.25,129.88v1.76h-3.49v11.37h-2.15v-11.37h-3.51v-1.76h9.16Z"/>
      <path class="cls-1" d="M175.24,143l-3.02-5.25h-1.64v5.25h-2.15v-13.12h4.53c1.01,0,1.86.18,2.56.53s1.22.82,1.57,1.42c.35.59.52,1.25.52,1.98,0,.86-.25,1.63-.75,2.33s-1.26,1.17-2.29,1.43l3.25,5.44h-2.57ZM170.58,136.04h2.38c.81,0,1.41-.2,1.82-.6.41-.4.61-.94.61-1.62s-.2-1.21-.6-1.6c-.4-.38-1.01-.58-1.83-.58h-2.38v4.4Z"/>
      <path class="cls-1" d="M182.51,129.88v13.12h-2.15v-13.12h2.15Z"/>
      <path class="cls-1" d="M185.52,132.96c.6-1.02,1.41-1.82,2.44-2.39,1.03-.57,2.15-.86,3.37-.86,1.4,0,2.64.34,3.73,1.03,1.09.69,1.88,1.66,2.37,2.92h-2.59c-.34-.69-.81-1.21-1.42-1.55s-1.3-.51-2.1-.51c-.87,0-1.64.2-2.32.59-.68.39-1.21.95-1.6,1.68s-.58,1.58-.58,2.55.19,1.82.58,2.55c.38.73.92,1.29,1.6,1.69.68.4,1.45.59,2.32.59.79,0,1.49-.17,2.1-.51s1.08-.86,1.42-1.55h2.59c-.49,1.26-1.28,2.23-2.37,2.91-1.09.68-2.33,1.02-3.73,1.02-1.23,0-2.36-.29-3.38-.86-1.02-.57-1.83-1.37-2.43-2.39s-.9-2.17-.9-3.46.3-2.44.9-3.46Z"/>
      <path class="cls-1" d="M202.55,142.28c-1.03-.57-1.84-1.37-2.44-2.4-.6-1.03-.9-2.18-.9-3.46s.3-2.44.9-3.46c.6-1.02,1.41-1.82,2.44-2.39,1.03-.57,2.15-.86,3.37-.86s2.36.29,3.39.86c1.03.57,1.84,1.37,2.43,2.39.59,1.02.89,2.17.89,3.46s-.3,2.44-.89,3.46c-.59,1.03-1.4,1.82-2.43,2.4-1.03.57-2.16.86-3.39.86s-2.34-.29-3.37-.86ZM208.24,140.67c.68-.4,1.21-.96,1.6-1.7.38-.74.58-1.59.58-2.56s-.19-1.82-.58-2.55-.92-1.29-1.6-1.68-1.45-.59-2.32-.59-1.64.2-2.32.59c-.68.39-1.21.95-1.6,1.68s-.58,1.58-.58,2.55.19,1.82.58,2.56c.38.74.92,1.3,1.6,1.7.68.4,1.45.59,2.32.59s1.64-.2,2.32-.59Z"/>
      <path class="cls-1" d="M216.68,142.67c-.71-.31-1.26-.75-1.66-1.31-.4-.57-.6-1.23-.6-1.98h2.3c.05.57.27,1.03.67,1.4.4.37.95.55,1.67.55s1.32-.18,1.74-.54c.42-.36.62-.82.62-1.39,0-.44-.13-.8-.39-1.08-.26-.28-.58-.49-.96-.64s-.92-.31-1.6-.49c-.86-.23-1.55-.46-2.09-.69-.54-.23-.99-.59-1.37-1.09s-.57-1.15-.57-1.96c0-.76.19-1.42.57-1.98s.91-1,1.59-1.3c.68-.3,1.47-.45,2.36-.45,1.27,0,2.31.32,3.12.95.81.64,1.26,1.51,1.35,2.62h-2.38c-.04-.48-.26-.89-.68-1.23-.42-.34-.96-.51-1.64-.51-.62,0-1.12.16-1.51.47s-.59.77-.59,1.36c0,.4.12.73.37.99.25.26.56.46.93.61s.89.31,1.55.49c.87.24,1.58.48,2.12.72s1.01.61,1.4,1.1.58,1.16.58,1.99c0,.67-.18,1.3-.54,1.89-.36.59-.88,1.07-1.57,1.43-.69.36-1.5.54-2.43.54-.88,0-1.67-.15-2.38-.46Z"/>
    </g>
  </g>
</svg>