<?xml version="1.0" encoding="UTF-8"?>
<svg id="Capa_2" data-name="Capa 2" xmlns="http://www.w3.org/2000/svg" viewBox="0 0 196.26 129.91">
  <defs>
    <style>
      .cls-1 {
        fill: #0c4dae;
      }
    </style>
  </defs>
  <g id="Capa_1-2" data-name="Capa 1">
    <path class="cls-1" d="M196.26,24.48v74.93c0,3.22-4.1,5.69-6.82,3.95l-15.89-11.53s-.05-.04-.09-.05c-3.92-2.44-8.9-2.33-12.69.31l-53.76,37.04c-6.79,2.63-10.09-1.98-10.09-5.76v-52.83c0-.81-.92-1.25-1.58-.79,0,0-.01,0-.03.01L12.25,127.21c-.1.08-.23.13-.35.16-10.41,2.4-11.9-1.63-11.9-21.81V30.63c0-3.23,4.11-5.69,6.82-3.95l15.89,11.53s.05.04.09.05c3.92,2.44,8.9,2.33,12.69-.31L89.52.51c3.19-2.02,9.82,2.38,9.82,6.15v52.82c0,.81.92,1.25,1.59.79h.01L184.01,2.82c.1-.08.23-.13.35-.16,10.41-2.4,11.9,1.63,11.9,21.81h0Z"/>
  </g>
</svg>